<?xml version="1.0" standalone="no"?>
<!DOCTYPE svg PUBLIC "-//W3C//DTD SVG 20010904//EN"
 "http://www.w3.org/TR/2001/REC-SVG-20010904/DTD/svg10.dtd">
<svg version="1.0" xmlns="http://www.w3.org/2000/svg"
 width="481.000000pt" height="501.000000pt" viewBox="0 0 481.000000 501.000000"
 preserveAspectRatio="xMidYMid meet">

<rect width="100%" height="100%" fill="#FFFFFF"/>
	
<g transform="translate(0.000000,501.000000) scale(0.100000,-0.100000)"
fill="#E75D3A" stroke="none">
<path d="M3347 4296 c-21 -8 -46 -21 -56 -30 -10 -9 -21 -16 -25 -16 -13 0
-141 -84 -233 -152 -50 -38 -137 -116 -192 -175 l-100 -106 -83 9 c-106 11
-449 11 -554 0 l-81 -9 -49 53 c-111 121 -181 181 -370 317 -56 41 -205 113
-233 113 -43 0 -49 -18 -102 -283 -27 -142 -1 -423 59 -610 l15 -48 -46 -93
c-53 -106 -116 -194 -199 -280 -32 -32 -55 -62 -52 -67 14 -23 158 -109 389
-231 83 -44 188 -105 234 -136 93 -61 232 -189 288 -264 35 -49 38 -73 5 -51
-59 40 -216 137 -267 164 -74 40 -233 109 -254 109 -9 0 -25 7 -35 15 -11 8
-29 15 -40 15 -11 0 -33 4 -50 9 -97 30 -160 42 -231 44 l-80 2 -3 -69 -3 -68
-75 7 c-53 5 -79 3 -89 -5 -13 -11 -15 -108 -15 -689 l0 -678 23 -21 c22 -21
33 -22 198 -23 357 -1 650 -63 934 -199 50 -24 92 -47 93 -52 2 -4 9 -8 17 -8
7 0 32 -11 56 -24 176 -96 314 -93 503 10 105 57 222 110 356 159 185 69 479
114 741 115 142 0 157 2 177 20 l22 21 1 657 c1 361 0 666 -1 677 -4 41 -19
47 -95 40 -72 -7 -72 -7 -79 19 -3 14 -4 37 0 50 3 14 3 34 -1 46 -7 21 -11
22 -88 16 -45 -4 -104 -13 -132 -21 -27 -7 -70 -19 -95 -25 -47 -13 -65 -19
-195 -68 -101 -39 -235 -104 -291 -143 -23 -16 -46 -29 -49 -29 -4 0 -36 -20
-71 -44 -36 -26 -66 -41 -70 -35 -6 10 41 74 105 142 46 49 176 157 189 157 6
0 12 3 14 8 5 12 92 64 268 160 220 119 331 185 354 211 l20 22 -70 72 c-39
40 -85 90 -102 113 -42 54 -122 213 -122 241 0 12 10 59 21 105 28 109 37 178
45 327 7 119 -6 292 -26 351 -4 14 -14 52 -21 85 -12 56 -30 85 -54 84 -5 0
-27 -6 -48 -13z m-1799 -233 c15 -10 29 -20 32 -23 3 -3 17 -13 32 -22 57 -37
215 -198 280 -286 38 -52 75 -92 81 -89 113 42 186 51 412 51 218 0 260 -5
374 -41 45 -14 71 -6 71 22 0 8 4 15 8 17 4 2 25 26 46 53 90 119 279 293 371
341 11 5 32 18 47 28 22 15 29 15 32 5 3 -8 10 -32 17 -54 17 -52 17 -341 1
-415 -22 -94 -44 -174 -59 -208 -31 -70 -28 -90 32 -206 55 -107 85 -156 152
-248 l34 -47 -48 -27 c-26 -15 -69 -40 -96 -56 -26 -15 -49 -28 -52 -28 -2 0
-56 -29 -120 -65 -64 -36 -118 -65 -121 -65 -5 0 -96 -55 -149 -89 -93 -61
-193 -162 -293 -296 -86 -116 -136 -171 -174 -191 -40 -21 -124 -18 -162 5
-30 19 -104 99 -157 170 -15 20 -39 49 -53 65 -14 16 -26 32 -26 35 -1 11
-115 127 -170 172 -71 59 -130 94 -330 201 -36 20 -81 44 -100 55 -93 53 -158
88 -183 101 l-27 14 31 41 c59 79 103 152 160 265 l57 114 -24 53 c-14 29 -31
84 -39 122 -8 37 -19 84 -25 103 -6 19 -11 115 -11 212 -1 140 3 188 16 228
l17 50 44 -25 c25 -14 57 -33 72 -42z m-335 -1614 c60 -11 172 -46 210 -65 16
-8 33 -14 38 -14 10 0 111 -43 139 -60 8 -5 46 -25 84 -45 169 -89 407 -271
559 -429 l67 -70 0 -448 c0 -411 -3 -473 -24 -439 -3 5 -57 43 -119 84 -142
95 -340 194 -482 241 -198 66 -171 59 -359 95 -61 12 -131 21 -158 21 l-48 0
0 568 c0 313 3 572 7 576 4 3 14 4 22 1 9 -4 38 -11 64 -16z m2432 -555 l0
-569 -45 -2 c-51 -3 -215 -29 -275 -44 -40 -10 -94 -25 -190 -53 -64 -19 -169
-59 -220 -84 -22 -11 -60 -29 -85 -41 -25 -12 -67 -35 -95 -52 -27 -16 -57
-33 -65 -36 -8 -4 -17 -9 -20 -13 -3 -3 -30 -21 -60 -40 -30 -19 -57 -37 -60
-40 -3 -3 -22 -18 -42 -33 l-38 -28 0 453 0 453 107 105 c127 124 232 209 363
296 85 56 217 133 260 150 8 4 38 17 67 30 28 13 58 24 65 24 8 0 18 4 24 10
12 12 206 70 236 70 13 0 30 5 38 10 8 5 20 8 25 7 7 -3 10 -202 10 -573z"/>
<path d="M1734 3075 c-18 -9 -43 -28 -55 -42 l-24 -25 23 -19 c28 -22 84 -39
132 -39 80 0 202 -64 284 -149 26 -28 52 -51 57 -51 10 0 13 35 9 90 -6 83
-83 180 -178 222 -64 28 -204 36 -248 13z"/>
<path d="M2831 3083 c-33 -6 -110 -50 -144 -82 -48 -44 -87 -132 -87 -196 0
-39 4 -55 13 -55 7 0 39 27 72 61 89 91 170 132 290 145 123 12 152 36 102 82
-48 45 -148 63 -246 45z"/>
<path d="M2282 2400 c-43 -10 -47 -14 -47 -60 0 -48 44 -106 99 -134 33 -16
43 -17 79 -6 55 16 75 34 103 94 25 55 21 84 -17 103 -26 14 -164 16 -217 3z"/>
</g>
</svg>
