<svg width="73" height="78" viewBox="0 0 73 78" fill="none" xmlns="http://www.w3.org/2000/svg">
<g filter="url(#filter0_dd_14_970)">
<g clip-path="url(#clip0_14_970)">
<path d="M53.815 40.835C52.8607 43.0917 51.3682 45.0803 49.4678 46.627C47.5675 48.1736 45.3172 49.2311 42.9137 49.7072C40.5102 50.1832 38.0266 50.0632 35.6802 49.3577C33.3338 48.6522 31.1959 47.3826 29.4535 45.66C27.7111 43.9374 26.4172 41.8141 25.6849 39.4759C24.9527 37.1377 24.8043 34.6557 25.2529 32.247C25.7014 29.8382 26.7332 27.5759 28.2581 25.658C29.7829 23.7401 31.7543 22.225 34 21.245M55 35C55 33.0302 54.612 31.0796 53.8582 29.2597C53.1044 27.4399 51.9995 25.7863 50.6066 24.3934C49.2137 23.0005 47.5601 21.8956 45.7402 21.1418C43.9204 20.388 41.9698 20 40 20V35H55Z" stroke="#E75D3A" stroke-width="2.5" stroke-linecap="round" stroke-linejoin="round"/>
</g>
</g>
<defs>
<filter id="filter0_dd_14_970" x="0" y="0" width="80" height="78" filterUnits="userSpaceOnUse" color-interpolation-filters="sRGB">
<feFlood flood-opacity="0" result="BackgroundImageFix"/>
<feColorMatrix in="SourceAlpha" type="matrix" values="0 0 0 0 0 0 0 0 0 0 0 0 0 0 0 0 0 0 127 0" result="hardAlpha"/>
<feOffset dy="1"/>
<feGaussianBlur stdDeviation="1.5"/>
<feColorMatrix type="matrix" values="0 0 0 0 0 0 0 0 0 0 0 0 0 0 0 0 0 0 0.3 0"/>
<feBlend mode="normal" in2="BackgroundImageFix" result="effect1_dropShadow_14_970"/>
<feColorMatrix in="SourceAlpha" type="matrix" values="0 0 0 0 0 0 0 0 0 0 0 0 0 0 0 0 0 0 127 0" result="hardAlpha"/>
<feMorphology radius="3" operator="dilate" in="SourceAlpha" result="effect2_dropShadow_14_970"/>
<feOffset dy="4"/>
<feGaussianBlur stdDeviation="4"/>
<feColorMatrix type="matrix" values="0 0 0 0 0 0 0 0 0 0 0 0 0 0 0 0 0 0 0.15 0"/>
<feBlend mode="normal" in2="effect1_dropShadow_14_970" result="effect2_dropShadow_14_970"/>
<feBlend mode="normal" in="SourceGraphic" in2="effect2_dropShadow_14_970" result="shape"/>
</filter>
<clipPath id="clip0_14_970">
<path d="M11 35C11 19.536 23.536 7 39 7H41C56.464 7 69 19.536 69 35C69 50.464 56.464 63 41 63H39C23.536 63 11 50.464 11 35Z" fill="white"/>
</clipPath>
</defs>
</svg>
