<svg width="36" height="36" viewBox="0 0 36 36" fill="none" xmlns="http://www.w3.org/2000/svg">
<path d="M18 10.5C18 8.9087 17.3679 7.38258 16.2426 6.25736C15.1174 5.13214 13.5913 4.5 12 4.5H3V27H13.5C14.6935 27 15.8381 27.4741 16.682 28.318C17.5259 29.1619 18 30.3065 18 31.5M18 10.5V31.5M18 10.5C18 8.9087 18.6321 7.38258 19.7574 6.25736C20.8826 5.13214 22.4087 4.5 24 4.5H33V27H22.5C21.3065 27 20.1619 27.4741 19.318 28.318C18.4741 29.1619 18 30.3065 18 31.5" stroke="currentColor" stroke-width="2.5" stroke-linecap="round" stroke-linejoin="round"/>
</svg>
